<svg width="44" height="36" viewBox="0 0 44 36" fill="none" xmlns="http://www.w3.org/2000/svg">
<path d="M2.54694 10.8122C1.67454 10.4908 1.67454 9.25688 2.54693 8.93547L21.6543 1.89592C21.8774 1.81371 22.1226 1.81371 22.3457 1.89592L41.4531 8.93547C42.3255 9.25688 42.3255 10.4908 41.4531 10.8122L22.3457 17.8517C22.1226 17.9339 21.8774 17.9339 21.6543 17.8517L2.54694 10.8122Z" stroke="white" stroke-width="2"/>
<path d="M10.4209 13.3477V25.9974C10.4209 26.1977 10.5163 26.3861 10.6779 26.5045V26.5045C17.7615 31.6992 27.3961 31.6992 34.4797 26.5045V26.5045C34.6412 26.3861 34.7367 26.1977 34.7367 25.9974V13.3477" stroke="white" stroke-width="2"/>
<path d="M27.2104 8.13721L38.6846 11.9619C39.0929 12.098 39.3683 12.4802 39.3683 12.9106V25.5056M39.3683 29.5583V32.453" stroke="white" stroke-width="2" stroke-linecap="round"/>
</svg>
