<svg width="37" height="42" viewBox="0 0 37 42" fill="none" xmlns="http://www.w3.org/2000/svg">
<rect x="1" y="6" width="35" height="35" rx="3" stroke="white" stroke-width="2"/>
<rect x="2" y="14" width="34" height="2" fill="white"/>
<rect x="10" y="1" width="4" height="10" rx="2" fill="white" stroke="#151617" stroke-width="2"/>
<rect x="23" y="1" width="4" height="10" rx="2" fill="white" stroke="#151617" stroke-width="2"/>
<path d="M10.5859 32.2383C10.5859 31.8867 10.647 31.5547 10.769 31.2422C10.8911 30.9248 11.0547 30.6465 11.2598 30.4072C11.4697 30.1631 11.709 29.9312 11.9775 29.7114C12.251 29.4917 12.5366 29.2866 12.8345 29.0962C13.1323 28.9058 13.4277 28.7178 13.7207 28.5322C14.0186 28.3467 14.3018 28.1538 14.5703 27.9536C14.8438 27.7534 15.083 27.5483 15.2881 27.3384C15.498 27.1284 15.6641 26.8892 15.7861 26.6206C15.9082 26.3521 15.9692 26.0688 15.9692 25.771C15.9692 25.3267 15.813 24.9531 15.5005 24.6504C15.188 24.3477 14.7583 24.1963 14.2114 24.1963C13.4155 24.1963 12.8467 24.5552 12.5049 25.2729C12.334 25.5952 12.085 25.7563 11.7578 25.7563C11.5332 25.7563 11.3403 25.6782 11.1792 25.522C11.0229 25.3608 10.9448 25.168 10.9448 24.9434C10.9448 24.8262 10.9692 24.7114 11.0181 24.5991C11.272 24.0181 11.6699 23.5566 12.2119 23.2148C12.7539 22.8682 13.4204 22.6948 14.2114 22.6948C15.2905 22.6948 16.1377 22.9756 16.7529 23.5371C17.373 24.0938 17.6831 24.8384 17.6831 25.771C17.6831 26.2007 17.5879 26.6133 17.3975 27.0088C17.207 27.4043 16.958 27.7534 16.6504 28.0562C16.3428 28.3589 16.0034 28.647 15.6323 28.9204C15.2661 29.1938 14.8975 29.4453 14.5264 29.6748C14.1553 29.8994 13.8159 30.1118 13.5083 30.312C13.2007 30.5122 12.9517 30.7124 12.7612 30.9126C12.5708 31.1079 12.4756 31.2935 12.4756 31.4692H17.0825C17.2925 31.4692 17.4707 31.5449 17.6172 31.6963C17.7686 31.8477 17.8442 32.0283 17.8442 32.2383C17.8442 32.4482 17.7686 32.6289 17.6172 32.7803C17.4707 32.9268 17.2925 33 17.0825 33H11.3477C11.1377 33 10.957 32.9268 10.8057 32.7803C10.6592 32.6289 10.5859 32.4482 10.5859 32.2383ZM18.9062 28.1733C18.9062 24.521 20.2466 22.6948 22.9272 22.6948C23.5181 22.6948 24.0405 22.7803 24.4946 22.9512C24.9536 23.1172 25.3003 23.3174 25.5347 23.5518C25.7056 23.7227 25.791 23.9131 25.791 24.123C25.791 24.333 25.7129 24.5161 25.5566 24.6724C25.4053 24.8237 25.2246 24.8994 25.0146 24.8994C24.8584 24.8994 24.6973 24.8457 24.5312 24.7383C24.2773 24.5625 24.0283 24.4282 23.7842 24.3354C23.5449 24.2427 23.2593 24.1963 22.9272 24.1963C22.1802 24.1963 21.6089 24.4551 21.2134 24.9727C20.8228 25.4854 20.6274 26.2202 20.6274 27.1772C20.8813 26.9136 21.2109 26.6987 21.6162 26.5327C22.0264 26.3618 22.4634 26.2764 22.9272 26.2764C24.0063 26.2764 24.8706 26.5767 25.52 27.1772C26.1694 27.7729 26.4941 28.6128 26.4941 29.6968C26.4941 30.2974 26.4014 30.8247 26.2158 31.2788C26.0303 31.7329 25.7642 32.1016 25.4175 32.3848C25.0757 32.6631 24.6777 32.8706 24.2236 33.0073C23.7695 33.144 23.2617 33.2124 22.7002 33.2124C22.0459 33.2124 21.4722 33.0903 20.979 32.8462C20.4907 32.5972 20.0952 32.2456 19.7925 31.7915C19.4946 31.3374 19.2725 30.8101 19.126 30.2095C18.9795 29.604 18.9062 28.9253 18.9062 28.1733ZM20.6641 29.0522C20.6641 29.8823 20.8398 30.5317 21.1914 31.0005C21.5479 31.4644 22.0508 31.6963 22.7002 31.6963C23.3496 31.6963 23.8599 31.5376 24.231 31.2202C24.6021 30.8979 24.7876 30.3901 24.7876 29.6968C24.7876 29.0815 24.6021 28.6104 24.231 28.2832C23.8599 27.9561 23.3838 27.7925 22.8027 27.7925C21.8555 27.7925 21.1426 28.2124 20.6641 29.0522Z" fill="white"/>
<path d="M10.769 31.2422L11.0019 31.3332L11.0024 31.3319L10.769 31.2422ZM11.2598 30.4072L11.0702 30.2442L11.07 30.2445L11.2598 30.4072ZM11.9775 29.7114L11.8209 29.5165L11.8192 29.5179L11.9775 29.7114ZM13.7207 28.5322L13.5885 28.32L13.5869 28.321L13.7207 28.5322ZM14.5703 27.9536L14.4226 27.7519L14.4209 27.7532L14.5703 27.9536ZM15.2881 27.3384L15.1113 27.1616L15.1092 27.1637L15.2881 27.3384ZM12.5049 25.2729L12.726 25.3902L12.7306 25.3804L12.5049 25.2729ZM11.1792 25.522L10.9996 25.6961L11.0052 25.7014L11.1792 25.522ZM11.0181 24.5991L10.789 24.499L10.7888 24.4994L11.0181 24.5991ZM12.2119 23.2148L12.3453 23.4263L12.3466 23.4254L12.2119 23.2148ZM16.7529 23.5371L16.5844 23.7218L16.5859 23.7232L16.7529 23.5371ZM15.6323 28.9204L15.484 28.7191L15.4828 28.7201L15.6323 28.9204ZM14.5264 29.6748L14.6558 29.8887L14.6579 29.8874L14.5264 29.6748ZM12.7612 30.9126L12.9402 31.0871L12.9424 31.0849L12.7612 30.9126ZM12.4756 31.4692H12.2256V31.7192H12.4756V31.4692ZM17.6172 31.6963L17.4375 31.8702L17.4404 31.8731L17.6172 31.6963ZM17.6172 32.7803L17.4404 32.6035L17.6172 32.7803ZM10.8057 32.7803L10.6259 32.9542L10.6318 32.9599L10.8057 32.7803ZM10.8359 32.2383C10.8359 31.9163 10.8917 31.6153 11.0019 31.3331L10.5362 31.1512C10.4022 31.4941 10.3359 31.8571 10.3359 32.2383H10.8359ZM11.0024 31.3319C11.115 31.0391 11.2645 30.7859 11.4496 30.5699L11.07 30.2445C10.8449 30.5071 10.6672 30.8105 10.5357 31.1524L11.0024 31.3319ZM11.4493 30.5702C11.6491 30.338 11.8777 30.1161 12.1358 29.9049L11.8192 29.5179C11.5403 29.7462 11.2904 29.9882 11.0702 30.2442L11.4493 30.5702ZM12.1341 29.9063C12.4005 29.6923 12.6788 29.4924 12.9691 29.3068L12.6998 28.8856C12.3944 29.0808 12.1015 29.2911 11.8209 29.5165L12.1341 29.9063ZM12.9691 29.3068C13.2667 29.1166 13.5618 28.9288 13.8545 28.7434L13.5869 28.321C13.2937 28.5068 12.998 28.6949 12.6998 28.8856L12.9691 29.3068ZM13.8529 28.7444C14.1564 28.5554 14.4453 28.3586 14.7197 28.154L14.4209 27.7532C14.1582 27.949 13.8807 28.138 13.5885 28.32L13.8529 28.7444ZM14.718 28.1553C15.0009 27.9482 15.2509 27.7342 15.4669 27.5131L15.1092 27.1637C14.9151 27.3624 14.6866 27.5586 14.4226 27.7519L14.718 28.1553ZM15.4649 27.5152C15.6959 27.2841 15.8792 27.0201 16.0137 26.7241L15.5585 26.5172C15.449 26.7582 15.3002 26.9727 15.1113 27.1616L15.4649 27.5152ZM16.0137 26.7241C16.1507 26.4227 16.2192 26.1042 16.2192 25.771H15.7192C15.7192 26.0335 15.6657 26.2814 15.5585 26.5172L16.0137 26.7241ZM16.2192 25.771C16.2192 25.2606 16.0367 24.8218 15.6744 24.4708L15.3265 24.83C15.5893 25.0845 15.7192 25.3927 15.7192 25.771H16.2192ZM15.6744 24.4708C15.3041 24.1121 14.8057 23.9463 14.2114 23.9463V24.4463C14.7109 24.4463 15.0719 24.5833 15.3265 24.83L15.6744 24.4708ZM14.2114 23.9463C13.775 23.9463 13.3856 24.0451 13.0545 24.254C12.7233 24.463 12.4666 24.7718 12.2792 25.1655L12.7306 25.3804C12.8849 25.0564 13.0836 24.8268 13.3213 24.6769C13.5589 24.5269 13.8519 24.4463 14.2114 24.4463V23.9463ZM12.284 25.1558C12.214 25.2879 12.1355 25.373 12.0541 25.4256C11.9742 25.4773 11.8783 25.5063 11.7578 25.5063V26.0063C11.9644 26.0063 12.1567 25.9548 12.3258 25.8454C12.4934 25.7369 12.6249 25.5803 12.7257 25.3901L12.284 25.1558ZM11.7578 25.5063C11.5981 25.5063 11.4677 25.4535 11.3532 25.3425L11.0052 25.7014C11.213 25.903 11.4683 26.0063 11.7578 26.0063V25.5063ZM11.3587 25.3479C11.2477 25.2335 11.1948 25.103 11.1948 24.9434H10.6948C10.6948 25.2329 10.7982 25.4882 10.9997 25.696L11.3587 25.3479ZM11.1948 24.9434C11.1948 24.862 11.2116 24.7811 11.2473 24.6988L10.7888 24.4994C10.7269 24.6418 10.6948 24.7903 10.6948 24.9434H11.1948ZM11.2471 24.6992C11.4808 24.1645 11.8451 23.7417 12.3453 23.4263L12.0786 23.0034C11.4947 23.3716 11.0632 23.8716 10.789 24.499L11.2471 24.6992ZM12.3466 23.4254C12.84 23.1098 13.4572 22.9448 14.2114 22.9448V22.4448C13.3837 22.4448 12.6678 22.6265 12.0772 23.0042L12.3466 23.4254ZM14.2114 22.9448C15.2471 22.9448 16.0275 23.2135 16.5844 23.7218L16.9215 23.3525C16.2478 22.7377 15.3339 22.4448 14.2114 22.4448V22.9448ZM16.5859 23.7232C17.1466 24.2264 17.4331 24.9 17.4331 25.771H17.9331C17.9331 24.7768 17.5995 23.9611 16.9199 23.3511L16.5859 23.7232ZM17.4331 25.771C17.4331 26.1623 17.3467 26.5379 17.1722 26.9003L17.6227 27.1172C17.8291 26.6887 17.9331 26.2391 17.9331 25.771H17.4331ZM17.1722 26.9003C16.9941 27.2704 16.7618 27.5958 16.475 27.878L16.8257 28.2343C17.1542 27.9111 17.42 27.5382 17.6227 27.1172L17.1722 26.9003ZM16.475 27.878C16.1764 28.1718 15.8462 28.4523 15.484 28.7191L15.7806 29.1217C16.1606 28.8417 16.5091 28.5459 16.8257 28.2343L16.475 27.878ZM15.4828 28.7201C15.1221 28.9894 14.7595 29.2367 14.3949 29.4622L14.6579 29.8874C15.0354 29.6539 15.4101 29.3983 15.7819 29.1207L15.4828 28.7201ZM14.3969 29.4609C14.0239 29.6867 13.6822 29.9006 13.3719 30.1025L13.6447 30.5215C13.9496 30.3231 14.2866 30.1121 14.6558 29.8887L14.3969 29.4609ZM13.3719 30.1025C13.053 30.3101 12.7875 30.5222 12.5801 30.7403L12.9424 31.0849C13.1158 30.9026 13.3484 30.7144 13.6447 30.5215L13.3719 30.1025ZM12.5822 30.7381C12.3707 30.9551 12.2256 31.2001 12.2256 31.4692H12.7256C12.7256 31.3868 12.7709 31.2608 12.9402 31.0871L12.5822 30.7381ZM12.4756 31.7192H17.0825V31.2192H12.4756V31.7192ZM17.0825 31.7192C17.2245 31.7192 17.338 31.7673 17.4375 31.8701L17.7968 31.5224C17.6034 31.3226 17.3605 31.2192 17.0825 31.2192V31.7192ZM17.4404 31.8731C17.5459 31.9786 17.5942 32.0961 17.5942 32.2383H18.0942C18.0942 31.9606 17.9912 31.7167 17.794 31.5195L17.4404 31.8731ZM17.5942 32.2383C17.5942 32.3805 17.5459 32.498 17.4404 32.6035L17.794 32.9571C17.9912 32.7598 18.0942 32.516 18.0942 32.2383H17.5942ZM17.4404 32.6035C17.3415 32.7024 17.2272 32.75 17.0825 32.75V33.25C17.3578 33.25 17.5999 33.1511 17.794 32.9571L17.4404 32.6035ZM17.0825 32.75H11.3477V33.25H17.0825V32.75ZM11.3477 32.75C11.2028 32.75 11.0844 32.7021 10.9795 32.6006L10.6318 32.9599C10.8296 33.1514 11.0726 33.25 11.3477 33.25V32.75ZM10.9853 32.6064C10.8838 32.5015 10.8359 32.3831 10.8359 32.2383H10.3359C10.3359 32.5134 10.4346 32.7563 10.626 32.9541L10.9853 32.6064ZM24.4946 22.9512L24.4066 23.1852L24.4096 23.1863L24.4946 22.9512ZM24.5312 24.7383L24.3889 24.9439L24.3954 24.9482L24.5312 24.7383ZM23.7842 24.3354L23.6938 24.5685L23.6954 24.5691L23.7842 24.3354ZM21.2134 24.9727L21.0147 24.8209L21.0145 24.8211L21.2134 24.9727ZM20.6274 27.1772H20.3774V27.7973L20.8075 27.3507L20.6274 27.1772ZM21.6162 26.5327L21.711 26.7641L21.7124 26.7635L21.6162 26.5327ZM25.52 27.1772L25.3503 27.3608L25.351 27.3615L25.52 27.1772ZM26.2158 31.2788L25.9844 31.1842L26.2158 31.2788ZM25.4175 32.3848L25.5753 32.5786L25.5756 32.5784L25.4175 32.3848ZM20.979 32.8462L20.8654 33.0689L20.8681 33.0702L20.979 32.8462ZM19.7925 31.7915L19.5834 31.9286L19.5845 31.9302L19.7925 31.7915ZM19.126 30.2095L18.883 30.2683L18.8831 30.2687L19.126 30.2095ZM20.6641 29.0522L20.4468 28.9285L20.4141 28.986V29.0522H20.6641ZM21.1914 31.0005L20.9914 31.1505L20.9932 31.1528L21.1914 31.0005ZM24.231 31.2202L24.3935 31.4102L24.3949 31.409L24.231 31.2202ZM19.1562 28.1733C19.1562 26.3704 19.4884 25.0635 20.113 24.2124C20.7271 23.3757 21.65 22.9448 22.9272 22.9448V22.4448C21.5239 22.4448 20.4362 22.927 19.71 23.9165C18.9943 24.8916 18.6562 26.324 18.6562 28.1733H19.1562ZM22.9272 22.9448C23.4943 22.9448 23.986 23.0269 24.4066 23.1852L24.5827 22.7172C24.095 22.5337 23.5418 22.4448 22.9272 22.4448V22.9448ZM24.4096 23.1863C24.8491 23.3452 25.1587 23.5294 25.3579 23.7285L25.7114 23.375C25.4418 23.1054 25.0582 22.8892 24.5797 22.7161L24.4096 23.1863ZM25.3579 23.7285C25.4896 23.8602 25.541 23.9895 25.541 24.123H26.041C26.041 23.8367 25.9215 23.5851 25.7114 23.375L25.3579 23.7285ZM25.541 24.123C25.541 24.2629 25.492 24.3835 25.3799 24.4956L25.7334 24.8491C25.9338 24.6487 26.041 24.4031 26.041 24.123H25.541ZM25.3799 24.4956C25.2744 24.6011 25.1569 24.6494 25.0146 24.6494V25.1494C25.2924 25.1494 25.5362 25.0464 25.7334 24.8491L25.3799 24.4956ZM25.0146 24.6494C24.9179 24.6494 24.8033 24.6165 24.6671 24.5284L24.3954 24.9482C24.5912 25.0749 24.7989 25.1494 25.0146 25.1494V24.6494ZM24.6736 24.5327C24.4059 24.3475 24.1391 24.2029 23.873 24.1018L23.6954 24.5691C23.9175 24.6536 24.1487 24.7775 24.3889 24.9438L24.6736 24.5327ZM23.8746 24.1024C23.5994 23.9957 23.2815 23.9463 22.9272 23.9463V24.4463C23.237 24.4463 23.4905 24.4897 23.6938 24.5685L23.8746 24.1024ZM22.9272 23.9463C22.1153 23.9463 21.4649 24.2317 21.0147 24.8209L21.412 25.1244C21.7529 24.6784 22.2451 24.4463 22.9272 24.4463V23.9463ZM21.0145 24.8211C20.5781 25.394 20.3774 26.1908 20.3774 27.1772H20.8774C20.8774 26.2496 21.0674 25.5767 21.4122 25.1242L21.0145 24.8211ZM20.8075 27.3507C21.0331 27.1164 21.3317 26.9194 21.711 26.7641L21.5214 26.3014C21.0902 26.478 20.7296 26.7107 20.4474 27.0038L20.8075 27.3507ZM21.7124 26.7635C22.0907 26.6058 22.4949 26.5264 22.9272 26.5264V26.0264C22.4319 26.0264 21.962 26.1178 21.5201 26.3019L21.7124 26.7635ZM22.9272 26.5264C23.958 26.5264 24.7567 26.8119 25.3503 27.3608L25.6898 26.9937C24.9845 26.3414 24.0547 26.0264 22.9272 26.0264V26.5264ZM25.351 27.3615C25.9373 27.8993 26.2441 28.6655 26.2441 29.6968H26.7441C26.7441 28.5601 26.4016 27.6466 25.689 26.993L25.351 27.3615ZM26.2441 29.6968C26.2441 30.272 26.1553 30.7661 25.9844 31.1842L26.4472 31.3734C26.6475 30.8833 26.7441 30.3227 26.7441 29.6968H26.2441ZM25.9844 31.1842C25.8131 31.6035 25.5707 31.9368 25.2593 32.1912L25.5756 32.5784C25.9576 32.2663 26.2475 31.8623 26.4472 31.3734L25.9844 31.1842ZM25.2596 32.1909C24.945 32.4471 24.5768 32.6399 24.1516 32.7679L24.2957 33.2467C24.7787 33.1013 25.2063 32.8791 25.5753 32.5786L25.2596 32.1909ZM24.1516 32.7679C23.7247 32.8965 23.2417 32.9624 22.7002 32.9624V33.4624C23.2818 33.4624 23.8144 33.3916 24.2957 33.2467L24.1516 32.7679ZM22.7002 32.9624C22.0772 32.9624 21.5427 32.8463 21.0899 32.6221L20.8681 33.0702C21.4017 33.3344 22.0146 33.4624 22.7002 33.4624V32.9624ZM21.0926 32.6235C20.6423 32.3938 20.2794 32.0711 20.0005 31.6528L19.5845 31.9302C19.9111 32.4201 20.3392 32.8005 20.8654 33.0689L21.0926 32.6235ZM20.0015 31.6544C19.7213 31.2272 19.5095 30.7269 19.3689 30.1502L18.8831 30.2687C19.0354 30.8932 19.2679 31.4476 19.5834 31.9286L20.0015 31.6544ZM19.369 30.1507C19.228 29.5679 19.1562 28.9094 19.1562 28.1733H18.6562C18.6562 28.9412 18.731 29.6401 18.883 30.2683L19.369 30.1507ZM20.4141 29.0522C20.4141 29.9145 20.5963 30.6237 20.9914 31.1505L21.3914 30.8505C21.0834 30.4398 20.9141 29.8501 20.9141 29.0522H20.4141ZM20.9932 31.1528C21.4026 31.6856 21.9829 31.9463 22.7002 31.9463V31.4463C22.1186 31.4463 21.6931 31.2431 21.3896 30.8482L20.9932 31.1528ZM22.7002 31.9463C23.3893 31.9463 23.964 31.7775 24.3934 31.4102L24.0685 31.0302C23.7558 31.2977 23.3099 31.4463 22.7002 31.4463V31.9463ZM24.3949 31.409C24.8403 31.0222 25.0376 30.4318 25.0376 29.6968H24.5376C24.5376 30.3485 24.3638 30.7737 24.067 31.0315L24.3949 31.409ZM25.0376 29.6968C25.0376 29.0287 24.8339 28.4815 24.3963 28.0957L24.0656 28.4707C24.3702 28.7392 24.5376 29.1344 24.5376 29.6968H25.0376ZM24.3963 28.0957C23.9717 27.7214 23.4334 27.5425 22.8027 27.5425V28.0425C23.3341 28.0425 23.748 28.1907 24.0656 28.4707L24.3963 28.0957ZM22.8027 27.5425C21.7634 27.5425 20.9687 28.0126 20.4468 28.9285L20.8813 29.176C21.3165 28.4122 21.9475 28.0425 22.8027 28.0425V27.5425Z" fill="white"/>
</svg>
