<svg width="48" height="48" viewBox="0 0 48 48" fill="none" xmlns="http://www.w3.org/2000/svg">
<g opacity="0.7">
<path d="M8.52271 20.2849C9.05434 17.2963 11.7343 15.1755 14.7651 15.3451L15.1184 15.3648C16.5082 15.4426 17.8647 15.888 19.0347 16.6469C22.3449 18.7941 26.6551 18.7941 29.9653 16.6469C31.1353 15.888 32.4918 15.4426 33.8816 15.3648L34.2349 15.3451C37.2657 15.1755 39.9457 17.2963 40.4773 20.2849L42.5632 32.0113C43.2115 35.6554 40.4093 39 36.708 39C34.1687 39 31.9094 37.3876 31.0839 34.9862L29.4209 30.1483C28.6986 28.0471 26.7219 26.6364 24.5 26.6364C22.2781 26.6364 20.3014 28.0471 19.5791 30.1483L17.9161 34.9862C17.0906 37.3876 14.8313 39 12.292 39C8.59073 39 5.78854 35.6554 6.43676 32.0113L8.52271 20.2849Z" stroke="white" stroke-width="2"/>
<path d="M23.5 13C23.5 12.4477 23.9477 12 24.5 12C25.0523 12 25.5 12.4477 25.5 13V19H23.5V13Z" fill="white"/>
<rect x="14" y="20" width="2" height="6" rx="1" fill="white"/>
<rect x="33" y="19" width="2" height="3" rx="1" fill="white"/>
<rect x="18" y="22" width="2" height="6" rx="1" transform="rotate(90 18 22)" fill="white"/>
<rect x="33" y="22" width="2" height="3" rx="1" transform="rotate(90 33 22)" fill="white"/>
<rect x="38" y="22" width="2" height="3" rx="1" transform="rotate(90 38 22)" fill="white"/>
</g>
</svg>
