<svg width="48" height="48" viewBox="0 0 48 48" fill="none" xmlns="http://www.w3.org/2000/svg">
<g opacity="0.7">
<path d="M10 14.9177C10 13.626 10.8268 12.4793 12.0524 12.0713L19.9246 9.45049C20.7808 9.16545 21.7198 9.28095 22.4814 9.76499L37.6092 19.3797C38.4754 19.9302 39 20.8853 39 21.9116V36.5C39 38.1569 37.6569 39.5 36 39.5H13C11.3431 39.5 10 38.1569 10 36.5V14.9177Z" stroke="white" stroke-width="2"/>
<rect x="16" y="18.5" width="5" height="5" rx="1" stroke="white" stroke-width="2"/>
<rect x="29" y="25" width="5" height="10" rx="1" stroke="white" stroke-width="2"/>
<path d="M31 12C31 11.4477 31.4477 11 32 11H34C34.5523 11 35 11.4477 35 12V16.3211C35 17.0788 34.19 17.5613 33.5237 17.2003L31.5237 16.117C31.201 15.9422 31 15.6047 31 15.2377V12Z" fill="white"/>
</g>
</svg>
