<svg width="48" height="48" viewBox="0 0 48 48" fill="none" xmlns="http://www.w3.org/2000/svg">
<g opacity="0.7">
<rect x="7.0293" y="28.2427" width="6" height="18" rx="3" transform="rotate(-45 7.0293 28.2427)" stroke="white" stroke-width="2"/>
<path d="M32.0713 10.8579L33.4855 9.4437C34.2666 8.66265 35.5329 8.66265 36.3139 9.4437L39.1424 12.2721C39.9234 13.0532 39.9234 14.3195 39.1424 15.1006L37.7281 16.5148L32.0713 10.8579Z" stroke="white" stroke-width="2"/>
<path d="M10.8584 32.0713L9.44418 33.4855C8.66314 34.2666 8.66314 35.5329 9.44418 36.3139L12.2726 39.1424C13.0537 39.9234 14.32 39.9234 15.101 39.1424L16.5153 37.7281L10.8584 32.0713Z" stroke="white" stroke-width="2"/>
<rect x="24" y="11.272" width="6" height="18" rx="3" transform="rotate(-45 24 11.272)" stroke="white" stroke-width="2"/>
<rect x="16.2217" y="28.9497" width="18" height="4" transform="rotate(-45 16.2217 28.9497)" stroke="white" stroke-width="2"/>
</g>
</svg>
