<svg width="18" height="15" viewBox="0 0 18 15" fill="none" xmlns="http://www.w3.org/2000/svg">
<g clip-path="url(#clip0_2226_1687)">
<path d="M15.2378 1.76191C14.0905 1.22393 12.8602 0.827572 11.5739 0.600562C11.5505 0.59618 11.5271 0.607129 11.515 0.629028C11.3568 0.916621 11.1815 1.29181 11.0588 1.58671C9.6753 1.37503 8.29889 1.37503 6.94374 1.58671C6.82099 1.28526 6.63936 0.916621 6.48043 0.629028C6.46836 0.60786 6.44496 0.596911 6.42154 0.600562C5.13593 0.826846 3.90567 1.2232 2.7577 1.76191C2.74776 1.76628 2.73924 1.77359 2.73359 1.78307C0.400044 5.34594 -0.239213 8.82123 0.0743851 12.2534C0.075804 12.2702 0.0850274 12.2863 0.0977985 12.2965C1.63741 13.452 3.12878 14.1535 4.59246 14.6184C4.61588 14.6257 4.6407 14.617 4.65561 14.5973C5.00184 14.1141 5.31048 13.6046 5.57511 13.0688C5.59072 13.0374 5.57582 13.0002 5.5439 12.9877C5.05435 12.798 4.5882 12.5666 4.1398 12.3038C4.10433 12.2826 4.10149 12.2308 4.13412 12.206C4.22848 12.1337 4.32286 12.0585 4.41297 11.9826C4.42927 11.9687 4.45198 11.9658 4.47115 11.9746C7.41696 13.3491 10.6062 13.3491 13.5172 11.9746C13.5364 11.9651 13.5591 11.968 13.5761 11.9819C13.6662 12.0578 13.7606 12.1337 13.8557 12.206C13.8883 12.2308 13.8862 12.2826 13.8507 12.3038C13.4023 12.5717 12.9361 12.798 12.4459 12.987C12.414 12.9994 12.3998 13.0374 12.4154 13.0688C12.6857 13.6038 12.9943 14.1133 13.3342 14.5965C13.3484 14.617 13.3739 14.6257 13.3973 14.6184C14.8681 14.1535 16.3595 13.452 17.8991 12.2965C17.9126 12.2863 17.9211 12.2709 17.9225 12.2542C18.2978 8.28615 17.2939 4.83936 15.2612 1.7838C15.2562 1.77359 15.2477 1.76628 15.2378 1.76191ZM6.01502 10.1636C5.12812 10.1636 4.39735 9.33145 4.39735 8.30952C4.39735 7.28759 5.11395 6.45547 6.01502 6.45547C6.92315 6.45547 7.64686 7.2949 7.63266 8.30952C7.63266 9.33145 6.91606 10.1636 6.01502 10.1636ZM11.9961 10.1636C11.1092 10.1636 10.3784 9.33145 10.3784 8.30952C10.3784 7.28759 11.095 6.45547 11.9961 6.45547C12.9042 6.45547 13.6279 7.2949 13.6137 8.30952C13.6137 9.33145 12.9042 10.1636 11.9961 10.1636Z" fill="white"/>
</g>
<defs>
<clipPath id="clip0_2226_1687">
<rect width="18" height="14.25" fill="white" transform="translate(0 0.493164)"/>
</clipPath>
</defs>
</svg>
