<svg width="18" height="19" viewBox="0 0 18 19" fill="none" xmlns="http://www.w3.org/2000/svg">
<path d="M6.11356 15.7432C4.47787 15.7447 2.87629 15.2726 1.5 14.3832C1.7384 14.411 1.97821 14.4248 2.21821 14.4244C3.57335 14.4266 4.88987 13.9703 5.95618 13.1288C5.32806 13.1167 4.71938 12.9075 4.21524 12.5303C3.7111 12.1531 3.33669 11.6268 3.14436 11.025C3.33074 11.0613 3.52013 11.0796 3.70996 11.0797C3.97801 11.0797 4.24487 11.044 4.50353 10.9732C3.82225 10.8347 3.20954 10.4634 2.76935 9.92211C2.32916 9.38091 2.08862 8.70306 2.0885 8.00368C2.0885 7.99026 2.0885 7.97781 2.0885 7.96528C2.50625 8.19928 2.9736 8.32926 3.45149 8.34441C2.81423 7.91608 2.36326 7.25933 2.19047 6.50805C2.01769 5.75677 2.13608 4.96746 2.52152 4.30096C3.27659 5.23663 4.21872 6.00211 5.28679 6.54774C6.35485 7.09337 7.52497 7.40695 8.72122 7.46815C8.56897 6.81787 8.63452 6.13517 8.90775 5.52627C9.18097 4.91737 9.6465 4.4164 10.232 4.10131C10.8175 3.78622 11.49 3.67468 12.145 3.78403C12.8 3.89338 13.4007 4.21751 13.8537 4.70597C14.5264 4.57141 15.1714 4.32282 15.7613 3.9708C15.5366 4.67216 15.0665 5.2676 14.4384 5.64653C15.035 5.57397 15.6175 5.41223 16.1667 5.16665C15.7624 5.77499 15.2537 6.30603 14.6645 6.7349C14.6711 6.86447 14.674 6.99499 14.674 7.12648C14.674 11.1277 11.6456 15.7432 6.10974 15.7432" fill="white"/>
</svg>
