<svg width="18" height="19" viewBox="0 0 18 19" fill="none" xmlns="http://www.w3.org/2000/svg">
<path d="M15.3373 15.9552H12.6702V11.7784C12.6702 10.7824 12.6524 9.50026 11.283 9.50026C9.89388 9.50026 9.68133 10.5854 9.68133 11.7059V15.9549H7.0143V7.36573H9.57465V8.53951H9.61056C10.1319 7.64817 11.1048 7.11381 12.1368 7.15213C14.84 7.15213 15.3384 8.93016 15.3384 11.2433L15.3373 15.9552ZM4.00494 6.19163C3.15586 6.19163 2.45685 5.49303 2.45685 4.64395C2.45685 3.79487 3.15553 3.09619 4.00461 3.09619C4.85361 3.09619 5.55221 3.79471 5.55237 4.64363C5.55237 5.49254 4.85385 6.19155 4.00494 6.19163ZM5.33845 15.9552H2.6686V7.36573H5.33845V15.9552ZM16.6668 0.619406H1.32832C0.608308 0.611274 0.00889784 1.19675 0.00012207 1.91677V17.319C0.0085758 18.0394 0.607906 18.6255 1.32832 18.6178H16.6668C17.389 18.6269 17.9905 18.0409 18.0001 17.319V1.91573C17.9905 1.19418 17.3882 0.608778 16.6668 0.618278" fill="white"/>
</svg>
