<svg width="18" height="13" viewBox="0 0 18 13" fill="none" xmlns="http://www.w3.org/2000/svg">
<path d="M17.8207 3.01972C17.8207 3.01972 17.645 1.77871 17.1035 1.23378C16.4179 0.516596 15.6516 0.513086 15.3 0.470899C12.7828 0.288086 9.00352 0.288086 9.00352 0.288086H8.99648C8.99648 0.288086 5.21719 0.288086 2.7 0.470899C2.34844 0.513086 1.58203 0.516596 0.896482 1.23378C0.355078 1.77871 0.182813 3.01972 0.182813 3.01972C0.182813 3.01972 0 4.47871 0 5.93415V7.29825C0 8.7537 0.179296 10.2127 0.179296 10.2127C0.179296 10.2127 0.355078 11.4537 0.892965 11.9987C1.57852 12.7158 2.47852 12.6912 2.8793 12.7685C4.32071 12.9056 9 12.9479 9 12.9479C9 12.9479 12.7828 12.9408 15.3 12.7616C15.6516 12.7193 16.4179 12.7158 17.1035 11.9987C17.645 11.4537 17.8207 10.2127 17.8207 10.2127C17.8207 10.2127 18 8.75723 18 7.29825V5.93415C18 4.47871 17.8207 3.01972 17.8207 3.01972ZM7.14023 8.9541V3.89511L12.0023 6.43343L7.14023 8.9541Z" fill="white"/>
</svg>
