<svg width="48" height="48" viewBox="0 0 48 48" fill="none" xmlns="http://www.w3.org/2000/svg">
<g opacity="0.7">
<path d="M17 9.6642L23.1207 7.15545C23.3638 7.05584 23.6362 7.05584 23.8793 7.15545L30 9.6642M17 9.6642L23.5 12.8099M17 9.6642L17.0273 16.2315C17.0289 16.6128 17.2471 16.9599 17.59 17.1267L23.5 20M30 9.6642L23.5 12.8099M30 9.6642L29.9727 16.2315C29.9711 16.6128 29.7529 16.9599 29.41 17.1267L23.5 20M23.5 12.8099V20" stroke="white" stroke-width="2" stroke-linejoin="round"/>
<path d="M10 19.5333L16.75 16.7666M10 19.5333L10.031 26.9999M10 19.5333L23.5 26M37 19.5333L36.969 26.9999M37 19.5333L30.25 16.7666M37 19.5333L23.5 26M23.5 40.9999L16.781 37.7333M23.5 40.9999L30.219 37.7333M23.5 40.9999V26" stroke="white" stroke-width="2" stroke-linecap="round" stroke-linejoin="round"/>
<path d="M30 29.6642L36.1207 27.1554C36.3638 27.0558 36.6362 27.0558 36.8793 27.1554L43 29.6642M30 29.6642L36.5 32.8099M30 29.6642L30.0273 36.2315C30.0289 36.6128 30.2471 36.9599 30.59 37.1267L36.5 40M43 29.6642L36.5 32.8099M43 29.6642L42.9727 36.2315C42.9711 36.6128 42.7529 36.9599 42.41 37.1267L36.5 40M36.5 32.8099V40" stroke="white" stroke-width="2" stroke-linejoin="round"/>
<path d="M4 29.6642L10.1207 27.1554C10.3638 27.0558 10.6362 27.0558 10.8793 27.1554L17 29.6642M4 29.6642L10.5 32.8099M4 29.6642L4.0273 36.2315C4.02888 36.6128 4.24714 36.9599 4.59004 37.1267L10.5 40M17 29.6642L10.5 32.8099M17 29.6642L16.9727 36.2315C16.9711 36.6128 16.7529 36.9599 16.41 37.1267L10.5 40M10.5 32.8099V40" stroke="white" stroke-width="2" stroke-linejoin="round"/>
</g>
</svg>
