<svg width="49" height="48" viewBox="0 0 49 48" fill="none" xmlns="http://www.w3.org/2000/svg">
<g opacity="0.7">
<path d="M9.5 15.1481L24.2335 11.0737C24.4079 11.0255 24.5921 11.0255 24.7665 11.0737L39.5 15.1481M9.5 15.1481L24.5 22.4074M9.5 15.1481L11.5065 31.2397C11.5458 31.5548 11.7324 31.8325 12.0093 31.9879L24.5 39M39.5 15.1481L24.5 22.4074M39.5 15.1481L37.4935 31.2397C37.4542 31.5548 37.2676 31.8325 36.9907 31.9879L24.5 39M24.5 22.4074V39" stroke="white" stroke-width="2" stroke-linejoin="round"/>
<path d="M24 15.5L24 3.5M24 3.5L20.5 7M24 3.5L27.5 7" stroke="white" stroke-width="2" stroke-linecap="round" stroke-linejoin="round"/>
<path d="M16.2653 27.8314L5.55765 35.8855M5.55765 35.8855L6.33161 30.9966M5.55765 35.8855L10.4465 36.6594" stroke="white" stroke-width="2" stroke-linecap="round" stroke-linejoin="round"/>
<path d="M32.5579 27.8314L43.2656 35.8855M43.2656 35.8855L42.4916 30.9966M43.2656 35.8855L38.3767 36.6594" stroke="white" stroke-width="2" stroke-linecap="round" stroke-linejoin="round"/>
</g>
</svg>
