<svg width="49" height="48" viewBox="0 0 49 48" fill="none" xmlns="http://www.w3.org/2000/svg">
<g opacity="0.7">
<rect x="8.5" y="14" width="8" height="36" rx="1" transform="rotate(-45 8.5 14)" stroke="white" stroke-width="2" stroke-linejoin="round"/>
<rect x="12.7422" y="14" width="5" height="2" rx="1" transform="rotate(-45 12.7422 14)" fill="white"/>
<rect x="15.5706" y="16.8284" width="5" height="2" rx="1" transform="rotate(-45 15.5706 16.8284)" fill="white"/>
<rect x="18.3989" y="19.6569" width="5" height="2" rx="1" transform="rotate(-45 18.3989 19.6569)" fill="white"/>
<rect x="21.2275" y="22.4852" width="5" height="2" rx="1" transform="rotate(-45 21.2275 22.4852)" fill="white"/>
<rect x="24.0559" y="25.3137" width="5" height="2" rx="1" transform="rotate(-45 24.0559 25.3137)" fill="white"/>
<rect x="26.8843" y="28.1421" width="5" height="2" rx="1" transform="rotate(-45 26.8843 28.1421)" fill="white"/>
<rect x="29.7126" y="30.9706" width="5" height="2" rx="1" transform="rotate(-45 29.7126 30.9706)" fill="white"/>
<rect x="32.5413" y="33.799" width="5" height="2" rx="1" transform="rotate(-45 32.5413 33.799)" fill="white"/>
<path d="M33.7929 8.70711C34.1834 8.31658 34.8166 8.31658 35.2071 8.70711L39.4497 12.9497C39.8403 13.3403 39.8403 13.9734 39.4497 14.364L18.7883 35.0254C18.6652 35.1485 18.5122 35.2373 18.3443 35.2831L11.6665 37.1043C11.2932 37.2061 10.9508 36.8636 11.0526 36.4904L12.8738 29.8126C12.9196 29.6447 13.0084 29.4916 13.1314 29.3686L33.7929 8.70711Z" fill="#151617" stroke="white" stroke-width="2" stroke-linejoin="round"/>
<rect x="31.3789" y="11.1213" width="8" height="2" rx="1" transform="rotate(45 31.3789 11.1213)" fill="white"/>
<rect x="15.3579" y="27.1421" width="8" height="2" rx="1" transform="rotate(45 15.3579 27.1421)" fill="white"/>
</g>
</svg>
